<mxfile host="app.diagrams.net" agent="Mozilla/5.0 (Windows NT 10.0; Win64; x64) AppleWebKit/537.36 (KHTML, like Gecko) Chrome/124.0.0.0 Safari/537.36" version="26.2.6">
  <diagram name="Trang-1" id="ZjCOGHNvGokmJtzFNP6-">
    <mxGraphModel dx="-97" dy="363" grid="1" gridSize="10" guides="1" tooltips="1" connect="1" arrows="1" fold="1" page="1" pageScale="1" pageWidth="827" pageHeight="1169" math="0" shadow="0">
      <root>
        <mxCell id="0" />
        <mxCell id="1" parent="0" />
        <mxCell id="bbUwoebBi7SuiLzOVzdQ-4" value="ten" style="ellipse;whiteSpace=wrap;html=1;align=center;fillColor=#dae8fc;strokeColor=#6c8ebf;" parent="1" vertex="1">
          <mxGeometry x="1410" y="390" width="100" height="40" as="geometry" />
        </mxCell>
        <mxCell id="bbUwoebBi7SuiLzOVzdQ-5" value="khách hàng" style="whiteSpace=wrap;html=1;align=center;fillColor=#dae8fc;strokeColor=#6c8ebf;" parent="1" vertex="1">
          <mxGeometry x="1571" y="440" width="90" height="40" as="geometry" />
        </mxCell>
        <mxCell id="bbUwoebBi7SuiLzOVzdQ-8" value="id" style="ellipse;whiteSpace=wrap;html=1;align=center;fontStyle=4;fillColor=#dae8fc;strokeColor=#6c8ebf;" parent="1" vertex="1">
          <mxGeometry x="1980.5" y="470" width="79.5" height="40" as="geometry" />
        </mxCell>
        <mxCell id="bbUwoebBi7SuiLzOVzdQ-9" value="tài khoản" style="whiteSpace=wrap;html=1;align=center;fillColor=#dae8fc;strokeColor=#6c8ebf;" parent="1" vertex="1">
          <mxGeometry x="1830" y="440" width="100" height="40" as="geometry" />
        </mxCell>
        <mxCell id="bbUwoebBi7SuiLzOVzdQ-10" value="dia chi email" style="ellipse;whiteSpace=wrap;html=1;align=center;fillColor=#dae8fc;strokeColor=#6c8ebf;" parent="1" vertex="1">
          <mxGeometry x="1970" y="390" width="90" height="40" as="geometry" />
        </mxCell>
        <mxCell id="bbUwoebBi7SuiLzOVzdQ-11" value="" style="endArrow=none;html=1;rounded=0;exitX=0.073;exitY=0.81;exitDx=0;exitDy=0;entryX=1;entryY=0.5;entryDx=0;entryDy=0;exitPerimeter=0;" parent="1" source="bbUwoebBi7SuiLzOVzdQ-10" target="bbUwoebBi7SuiLzOVzdQ-9" edge="1">
          <mxGeometry width="50" height="50" relative="1" as="geometry">
            <mxPoint x="1870.5" y="550" as="sourcePoint" />
            <mxPoint x="1860.5" y="500" as="targetPoint" />
          </mxGeometry>
        </mxCell>
        <mxCell id="bbUwoebBi7SuiLzOVzdQ-15" value="" style="endArrow=none;html=1;rounded=0;entryX=0;entryY=0.5;entryDx=0;entryDy=0;exitX=0.5;exitY=1;exitDx=0;exitDy=0;" parent="1" source="bbUwoebBi7SuiLzOVzdQ-29" target="bbUwoebBi7SuiLzOVzdQ-5" edge="1">
          <mxGeometry width="50" height="50" relative="1" as="geometry">
            <mxPoint x="1616" y="370" as="sourcePoint" />
            <mxPoint x="1510" y="500" as="targetPoint" />
          </mxGeometry>
        </mxCell>
        <mxCell id="bbUwoebBi7SuiLzOVzdQ-17" value="" style="endArrow=none;html=1;rounded=0;entryX=0;entryY=0.5;entryDx=0;entryDy=0;exitX=0.712;exitY=0.95;exitDx=0;exitDy=0;exitPerimeter=0;" parent="1" source="bbUwoebBi7SuiLzOVzdQ-4" target="bbUwoebBi7SuiLzOVzdQ-5" edge="1">
          <mxGeometry width="50" height="50" relative="1" as="geometry">
            <mxPoint x="1707" y="408" as="sourcePoint" />
            <mxPoint x="1671" y="450" as="targetPoint" />
          </mxGeometry>
        </mxCell>
        <mxCell id="bbUwoebBi7SuiLzOVzdQ-29" value="id" style="ellipse;whiteSpace=wrap;html=1;align=center;fontStyle=4;fillColor=#dae8fc;strokeColor=#6c8ebf;" parent="1" vertex="1">
          <mxGeometry x="1410" y="480" width="100" height="40" as="geometry" />
        </mxCell>
        <mxCell id="bbUwoebBi7SuiLzOVzdQ-30" value="" style="endArrow=none;html=1;rounded=0;exitX=0;exitY=0.5;exitDx=0;exitDy=0;" parent="1" source="bbUwoebBi7SuiLzOVzdQ-8" edge="1">
          <mxGeometry width="50" height="50" relative="1" as="geometry">
            <mxPoint x="1986" y="422" as="sourcePoint" />
            <mxPoint x="1930" y="460" as="targetPoint" />
          </mxGeometry>
        </mxCell>
        <mxCell id="bbUwoebBi7SuiLzOVzdQ-34" value="quản lý" style="rhombus;whiteSpace=wrap;html=1;fillColor=#f8cecc;strokeColor=#b85450;" parent="1" vertex="1">
          <mxGeometry x="1700" y="430" width="80" height="60" as="geometry" />
        </mxCell>
        <mxCell id="bbUwoebBi7SuiLzOVzdQ-35" value="" style="endArrow=none;html=1;rounded=0;entryX=0;entryY=0.5;entryDx=0;entryDy=0;exitX=1;exitY=0.5;exitDx=0;exitDy=0;" parent="1" source="bbUwoebBi7SuiLzOVzdQ-5" target="bbUwoebBi7SuiLzOVzdQ-34" edge="1">
          <mxGeometry width="50" height="50" relative="1" as="geometry">
            <mxPoint x="1670" y="460" as="sourcePoint" />
            <mxPoint x="1581" y="470" as="targetPoint" />
          </mxGeometry>
        </mxCell>
        <mxCell id="bbUwoebBi7SuiLzOVzdQ-36" value="" style="endArrow=none;html=1;rounded=0;entryX=0;entryY=0.5;entryDx=0;entryDy=0;" parent="1" target="bbUwoebBi7SuiLzOVzdQ-9" edge="1">
          <mxGeometry width="50" height="50" relative="1" as="geometry">
            <mxPoint x="1780" y="460" as="sourcePoint" />
            <mxPoint x="1710" y="470" as="targetPoint" />
          </mxGeometry>
        </mxCell>
        <mxCell id="bbUwoebBi7SuiLzOVzdQ-37" value="1" style="text;html=1;align=center;verticalAlign=middle;resizable=0;points=[];autosize=1;strokeColor=none;fillColor=none;" parent="1" vertex="1">
          <mxGeometry x="1661" y="430" width="30" height="30" as="geometry" />
        </mxCell>
        <mxCell id="bbUwoebBi7SuiLzOVzdQ-38" value="1" style="text;html=1;align=center;verticalAlign=middle;resizable=0;points=[];autosize=1;strokeColor=none;fillColor=none;" parent="1" vertex="1">
          <mxGeometry x="1790" y="430" width="30" height="30" as="geometry" />
        </mxCell>
      </root>
    </mxGraphModel>
  </diagram>
</mxfile>
